<svg width="32" height="32" viewBox="0 0 32 32" fill="none" xmlns="http://www.w3.org/2000/svg">
<path d="M21.0122 2.13831L20.856 0L0 1.41194L1.96826 28.3568L3.85096 28.2293V4.98856H26.7073V29.8962L28.9961 30.1334L32 3.27737L21.0122 2.13831Z" fill="#3A3D4F"/>
<path d="M5.79974 6.86499V32.0001H24.7583V6.86499H5.79974ZM12.0455 11.143C13.247 11.143 14.1942 11.5652 14.7993 12.325L13.4926 13.4479C13.133 13.0088 12.7033 12.7555 12.1508 12.7555C11.2913 12.7555 10.7125 13.3296 10.7125 14.233C10.7125 15.1364 11.2914 15.7105 12.1508 15.7105C12.7033 15.7105 13.133 15.4572 13.4926 15.0181L14.7993 16.141C14.1942 16.9008 13.247 17.323 12.0455 17.323C10.0722 17.323 8.62522 16.0481 8.62522 14.2329C8.62522 12.4179 10.0723 11.143 12.0455 11.143ZM21.6346 28.0358H8.92333V26.1595H21.6346V28.0358ZM21.6346 24.6984H8.92333V22.822H21.6346V24.6984ZM21.6346 21.3609H8.92333V19.4846H21.6346V21.3609ZM19.3598 17.1882H17.3252L14.7292 11.2781H16.9569L18.4215 14.7312L19.9212 11.2781H21.9558L19.3598 17.1882Z" fill="#3A3D4F"/>
</svg>
