<svg width="32" height="28" viewBox="0 0 32 28" fill="none" xmlns="http://www.w3.org/2000/svg">
<path d="M7.16286 28.0001H0.528571V9.30635H7.16286V28.0001ZM3.84214 6.75635C1.72071 6.75635 0 5.21886 0 3.36261C1.51843e-08 2.47098 0.404796 1.61588 1.12534 0.985402C1.84588 0.354929 2.82314 0.000732422 3.84214 0.000732422C4.86114 0.000732422 5.83841 0.354929 6.55895 0.985402C7.27949 1.61588 7.68429 2.47098 7.68429 3.36261C7.68429 5.21886 5.96286 6.75635 3.84214 6.75635ZM31.9929 28.0001H25.3729V18.9001C25.3729 16.7313 25.3229 13.9501 21.9236 13.9501C18.4743 13.9501 17.9457 16.3064 17.9457 18.7438V28.0001H11.3186V9.30635H17.6814V11.8564H17.7743C18.66 10.3876 20.8236 8.8376 24.0514 8.8376C30.7657 8.8376 32 12.7064 32 17.7314V28.0001H31.9929Z" fill="#3A3D4F"/>
</svg>
