<svg width="44" height="44" viewBox="0 0 44 44" fill="none" xmlns="http://www.w3.org/2000/svg">
<path d="M2 27V32V34C2 38.4183 5.58172 42 10 42H12H17M2 17V12V10C2 5.58172 5.58172 2 10 2H12H17M27 2H32H34C38.4183 2 42 5.58172 42 10V12V17M42 27V32V34C42 38.4183 38.4183 42 34 42H32H27" stroke="#69CFBB" stroke-width="3"/>
<path d="M18.9755 17.38C18.4232 17.38 17.9755 17.8278 17.9755 18.38V28C17.9755 28.5523 17.5278 29 16.9755 29H16.3355C15.7832 29 15.3355 28.5523 15.3355 28V18.38C15.3355 17.8278 14.8878 17.38 14.3355 17.38H12.3755C11.8232 17.38 11.3755 16.9323 11.3755 16.38V16.04C11.3755 15.4878 11.8232 15.04 12.3755 15.04H20.9355C21.4878 15.04 21.9355 15.4878 21.9355 16.04V16.38C21.9355 16.9323 21.4878 17.38 20.9355 17.38H18.9755Z" fill="#69CFBB"/>
<path d="M25.0971 29C24.5448 29 24.0971 28.5523 24.0971 28V16.04C24.0971 15.4878 24.5448 15.04 25.0971 15.04H32.0771C32.6293 15.04 33.0771 15.4878 33.0771 16.04V16.38C33.0771 16.9323 32.6293 17.38 32.0771 17.38H27.7371C27.1848 17.38 26.7371 17.8278 26.7371 18.38V19.76C26.7371 20.3123 27.1848 20.76 27.7371 20.76H31.2571C31.8093 20.76 32.2571 21.2078 32.2571 21.76V22.1C32.2571 22.6523 31.8093 23.1 31.2571 23.1H27.7371C27.1848 23.1 26.7371 23.5478 26.7371 24.1V28C26.7371 28.5523 26.2893 29 25.7371 29H25.0971Z" fill="#69CFBB"/>
</svg>
